<svg xmlns="http://www.w3.org/2000/svg" version="1.1" xmlns:xlink="http://www.w3.org/1999/xlink" xmlns:svgjs="http://svgjs.dev/svgjs" viewBox="0 0 2400 800" opacity="1"><defs><linearGradient x1="50%" y1="0%" x2="50%" y2="100%" id="oooscillate-grad"><stop stop-color="#a43a3a" stop-opacity="1" offset="0%"></stop><stop stop-color="#7c9a7c" stop-opacity="1" offset="100%"></stop></linearGradient></defs><g stroke-width="1.5" stroke="url(#oooscillate-grad)" fill="none" stroke-linecap="round"><path d="M 0 990 Q 600 -100 1200 400 Q 1800 900 2400 990" stroke-dasharray="29 2" opacity="0.05"></path><path d="M 0 968 Q 600 -100 1200 400 Q 1800 900 2400 968" stroke-dasharray="26 33" opacity="0.07"></path><path d="M 0 946 Q 600 -100 1200 400 Q 1800 900 2400 946" stroke-dasharray="48 7" opacity="0.09"></path><path d="M 0 924 Q 600 -100 1200 400 Q 1800 900 2400 924" stroke-dasharray="4 42" opacity="0.11"></path><path d="M 0 902 Q 600 -100 1200 400 Q 1800 900 2400 902" stroke-dasharray="17 3" opacity="0.14"></path><path d="M 0 880 Q 600 -100 1200 400 Q 1800 900 2400 880" stroke-dasharray="33 9" opacity="0.16"></path><path d="M 0 858 Q 600 -100 1200 400 Q 1800 900 2400 858" stroke-dasharray="1 25" opacity="0.18"></path><path d="M 0 836 Q 600 -100 1200 400 Q 1800 900 2400 836" stroke-dasharray="41 25" opacity="0.20"></path><path d="M 0 814 Q 600 -100 1200 400 Q 1800 900 2400 814" stroke-dasharray="41 13" opacity="0.22"></path><path d="M 0 792 Q 600 -100 1200 400 Q 1800 900 2400 792" stroke-dasharray="3 1" opacity="0.24"></path><path d="M 0 770 Q 600 -100 1200 400 Q 1800 900 2400 770" stroke-dasharray="1 28" opacity="0.27"></path><path d="M 0 748 Q 600 -100 1200 400 Q 1800 900 2400 748" stroke-dasharray="8 22" opacity="0.29"></path><path d="M 0 726 Q 600 -100 1200 400 Q 1800 900 2400 726" stroke-dasharray="19 40" opacity="0.31"></path><path d="M 0 704 Q 600 -100 1200 400 Q 1800 900 2400 704" stroke-dasharray="28 41" opacity="0.33"></path><path d="M 0 682 Q 600 -100 1200 400 Q 1800 900 2400 682" stroke-dasharray="5 14" opacity="0.35"></path><path d="M 0 660 Q 600 -100 1200 400 Q 1800 900 2400 660" stroke-dasharray="7 31" opacity="0.37"></path><path d="M 0 638 Q 600 -100 1200 400 Q 1800 900 2400 638" stroke-dasharray="34 26" opacity="0.40"></path><path d="M 0 616 Q 600 -100 1200 400 Q 1800 900 2400 616" stroke-dasharray="43 32" opacity="0.42"></path><path d="M 0 594 Q 600 -100 1200 400 Q 1800 900 2400 594" stroke-dasharray="8 16" opacity="0.44"></path><path d="M 0 572 Q 600 -100 1200 400 Q 1800 900 2400 572" stroke-dasharray="46 33" opacity="0.46"></path><path d="M 0 550 Q 600 -100 1200 400 Q 1800 900 2400 550" stroke-dasharray="13 8" opacity="0.48"></path><path d="M 0 528 Q 600 -100 1200 400 Q 1800 900 2400 528" stroke-dasharray="21 29" opacity="0.50"></path><path d="M 0 506 Q 600 -100 1200 400 Q 1800 900 2400 506" stroke-dasharray="1 31" opacity="0.53"></path><path d="M 0 484 Q 600 -100 1200 400 Q 1800 900 2400 484" stroke-dasharray="48 22" opacity="0.55"></path><path d="M 0 462 Q 600 -100 1200 400 Q 1800 900 2400 462" stroke-dasharray="22 23" opacity="0.57"></path><path d="M 0 440 Q 600 -100 1200 400 Q 1800 900 2400 440" stroke-dasharray="4 7" opacity="0.59"></path><path d="M 0 418 Q 600 -100 1200 400 Q 1800 900 2400 418" stroke-dasharray="14 27" opacity="0.61"></path><path d="M 0 396 Q 600 -100 1200 400 Q 1800 900 2400 396" stroke-dasharray="39 37" opacity="0.63"></path><path d="M 0 374 Q 600 -100 1200 400 Q 1800 900 2400 374" stroke-dasharray="48 13" opacity="0.65"></path><path d="M 0 352 Q 600 -100 1200 400 Q 1800 900 2400 352" stroke-dasharray="1 5" opacity="0.68"></path><path d="M 0 330 Q 600 -100 1200 400 Q 1800 900 2400 330" stroke-dasharray="9 46" opacity="0.70"></path><path d="M 0 308 Q 600 -100 1200 400 Q 1800 900 2400 308" stroke-dasharray="40 3" opacity="0.72"></path><path d="M 0 286 Q 600 -100 1200 400 Q 1800 900 2400 286" stroke-dasharray="12 30" opacity="0.74"></path><path d="M 0 264 Q 600 -100 1200 400 Q 1800 900 2400 264" stroke-dasharray="0 22" opacity="0.76"></path><path d="M 0 242 Q 600 -100 1200 400 Q 1800 900 2400 242" stroke-dasharray="32 31" opacity="0.78"></path><path d="M 0 220 Q 600 -100 1200 400 Q 1800 900 2400 220" stroke-dasharray="4 33" opacity="0.81"></path><path d="M 0 198 Q 600 -100 1200 400 Q 1800 900 2400 198" stroke-dasharray="28 39" opacity="0.83"></path><path d="M 0 176 Q 600 -100 1200 400 Q 1800 900 2400 176" stroke-dasharray="41 33" opacity="0.85"></path><path d="M 0 154 Q 600 -100 1200 400 Q 1800 900 2400 154" stroke-dasharray="11 28" opacity="0.87"></path><path d="M 0 132 Q 600 -100 1200 400 Q 1800 900 2400 132" stroke-dasharray="27 46" opacity="0.89"></path><path d="M 0 110 Q 600 -100 1200 400 Q 1800 900 2400 110" stroke-dasharray="37 26" opacity="0.91"></path><path d="M 0 88 Q 600 -100 1200 400 Q 1800 900 2400 88" stroke-dasharray="29 41" opacity="0.94"></path><path d="M 0 66 Q 600 -100 1200 400 Q 1800 900 2400 66" stroke-dasharray="32 46" opacity="0.96"></path><path d="M 0 44 Q 600 -100 1200 400 Q 1800 900 2400 44" stroke-dasharray="39 19" opacity="0.98"></path></g></svg>